<svg width="108" height="108" viewBox="0 0 108 108" fill="none" xmlns="http://www.w3.org/2000/svg">
<g clip-path="url(#clip0_1_218)">
<path d="M53.881 107.762C43.1448 107.78 32.6504 104.575 23.756 98.562C15.0927 92.7138 8.31142 84.4784 4.23399 74.854C0.739254 66.5974 -0.637008 57.5983 0.230254 48.6746C1.09752 39.7508 4.18081 31.1852 9.19999 23.756C15.0483 15.0928 23.2836 8.31153 32.908 4.234C41.1646 0.739174 50.1637 -0.637137 59.0874 0.230127C68.0112 1.09739 76.5768 4.18074 84.006 9.2C92.6686 15.0479 99.4494 23.2825 103.527 32.906C107.022 41.1631 108.398 50.1626 107.53 59.0867C106.663 68.0108 103.579 76.5767 98.559 84.006C92.7111 92.6687 84.4766 99.4495 74.853 103.527C68.2184 106.335 61.0854 107.776 53.881 107.762ZM37.558 76.162C36.548 77.962 36.358 79.43 37.002 80.524C37.962 82.167 40.791 83 45.41 83C46.86 83 48.187 82.921 49.157 82.864C49.688 82.832 50.106 82.808 50.357 82.808C52.1489 82.6586 53.8994 82.1885 55.525 81.42C56.9378 82.0366 58.4468 82.4037 59.985 82.505C60.235 82.505 60.654 82.53 61.185 82.561C62.155 82.619 63.485 82.697 64.933 82.697C69.551 82.697 72.379 81.866 73.339 80.226C73.979 79.133 73.792 77.665 72.783 75.865C72.777 75.9 72.771 75.938 72.765 75.978C72.7653 76.3354 72.6926 76.6891 72.5513 77.0174C72.4101 77.3457 72.2032 77.6417 71.9435 77.8872C71.6837 78.1328 71.3765 78.3226 71.0408 78.4452C70.7051 78.5678 70.3478 78.6204 69.991 78.6C68.5742 78.507 67.1917 78.1241 65.929 77.475C65.755 77.333 65.564 77.163 65.342 76.966C64.068 75.838 62.142 74.134 59.716 74.134C57.9074 74.2307 56.2112 75.0414 55 76.388C53.8368 75.21 52.2718 74.5147 50.618 74.441C48.191 74.441 46.265 76.141 44.991 77.271C44.771 77.466 44.581 77.634 44.408 77.771C43.1462 78.4212 41.7643 78.8055 40.348 78.9C39.9913 78.9202 39.6343 78.8673 39.2988 78.7446C38.9633 78.6219 38.6564 78.432 38.3968 78.1865C38.1373 77.941 37.9306 77.6451 37.7895 77.3169C37.6483 76.9888 37.5757 76.6352 37.576 76.278C37.57 76.237 37.564 76.199 37.558 76.164V76.162ZM30.008 32.59C29.9569 32.7239 29.9376 32.8679 29.9516 33.0105C29.9657 33.1532 30.0127 33.2906 30.089 33.412C30.605 34.194 32.443 34.375 34.065 34.535C34.8 34.5738 35.5292 34.6877 36.241 34.875C31.392 35.209 27.823 36.692 25.632 39.284C23.768 41.49 22.887 44.506 23.015 48.25C23.215 54.079 25.815 60.255 27.349 63.418C28.2382 65.2766 29.2491 67.0745 30.375 68.8C31.238 70.092 31.937 70.9 32.199 70.9C32.269 70.9 32.307 70.844 32.312 70.733C31.4103 67.1404 31.1303 63.4201 31.484 59.733C31.7477 57.186 32.4739 54.7084 33.627 52.422C34.6395 50.3281 36.1353 48.505 37.991 47.103C39.4225 48.4801 40.9577 49.7451 42.583 50.887C45.046 52.613 48.683 54.671 52.023 54.671C52.3106 54.6712 52.5981 54.6555 52.884 54.624C48.139 52.812 47.237 51.609 47.122 51.054C47.0992 50.9762 47.0957 50.8941 47.1117 50.8147C47.1278 50.7352 47.1629 50.6609 47.214 50.598C47.22 50.598 48.029 50.666 49.43 50.666C56.3097 50.6869 63.1149 49.2425 69.393 46.429C70.0348 46.5001 70.6556 46.7003 71.2179 47.0178C71.7803 47.3352 72.2725 47.7632 72.665 48.276C73.8509 49.7061 74.7931 51.3217 75.454 53.058C77.3438 58.0876 78.4954 63.3644 78.873 68.724C80.1234 67.7756 81.0766 66.4893 81.62 65.017C82.1866 63.5458 82.5444 62.0025 82.683 60.432C82.8656 58.5878 82.8586 56.7298 82.662 54.887C82.677 54.899 84.291 56.203 85.087 56.203C85.1522 56.208 85.2177 56.197 85.2777 56.1708C85.3376 56.1447 85.3903 56.1042 85.431 56.053C85.574 55.853 85.553 55.465 85.369 54.887C82.953 44.528 78.213 37.021 71.281 32.574C66.4873 29.5849 60.94 28.0262 55.291 28.081C53.7592 28.0646 52.2291 28.1857 50.719 28.443C50.685 28.431 49.911 28.153 49.877 27.583C49.839 26.94 50.712 26.192 52.47 25.358C51.5255 25.117 50.5548 24.9937 49.58 24.991C46.7614 25.0531 44.0461 26.0639 41.873 27.86C40.8167 28.6881 39.8752 29.6529 39.073 30.729H39.067C38.7224 30.7087 38.397 30.5641 38.151 30.322C37.839 29.9528 37.6047 29.5245 37.4623 29.0626C37.3198 28.6007 37.2721 28.1148 37.322 27.634C37.1768 27.6499 37.0374 27.6995 36.915 27.7791C36.7925 27.8586 36.6905 27.9658 36.617 28.092C35.785 29.452 37.17 33.364 37.184 33.404H37.1C36.981 33.404 36.733 33.409 36.406 33.409C34.834 33.409 31.063 33.33 30.006 32.602L30.008 32.59Z" fill="white"/>
</g>
<defs>
<clipPath id="clip0_1_218">
<rect width="107.762" height="107.762" fill="white"/>
</clipPath>
</defs>
</svg>
