<svg width="196" height="39" viewBox="0 0 196 39" fill="none" xmlns="http://www.w3.org/2000/svg">
<path d="M10.3 13.2C10.95 15.55 7.9 17.8 6.65 18.15C5.425 18.5 3.85 18.7 2.475 17.65C1.575 16.975 0.825 15.85 0.8 13.8C0.75 8.425 5.8 3.675 8.625 2.75C10.025 2.3 11.15 2.275 12 2.9C12.7 3.4 13.1 4.025 13.3 4.675C13.525 5.375 13.475 6.05 13.125 6.85C12.825 7.525 12.425 8.525 12.15 9.25C12.075 9.45 11.9 9.625 11.625 9.375C11.05 8.975 10.65 8.25 10.975 7C11.3 5.75 12.225 4.35 11.675 3.8C10.875 2.975 6.8 5.125 4.425 8.75C2.1 12.3 2.175 16.1 3.175 17.025C4.55 18.3 7.475 16.425 9 13.4C8.2 13.55 7.4 13.7 6.8 13.75C5.55 13.875 4.775 13.35 4.4 12.55C4.275 12.3 4.35 12.15 4.65 12.15C6.6 12.125 8.5 11.5 10.025 11.475C11.275 11.45 11.975 12 12.3 12.75C12.425 13.025 12.375 13.2 12.05 13.15C11.575 13.1 10.95 13.125 10.3 13.2ZM14.8 13.725C14 16.025 14.6 17.6 15.925 17.675C18 17.775 19.825 15.775 20.9 14.125C21.025 13.925 21.225 13.925 21.325 14.15C21.425 14.35 21.35 15.05 20.9 15.7C19.85 17.225 17.925 18.375 16 18.4C12.825 18.45 11.725 15.325 13.35 12.1C14.975 8.875 17.525 7.575 18.775 8.3C19.4 8.675 19.85 9.05 20.25 9.6C20.7 10.2 20.5 11.725 19.45 13C18.225 14.5 16.55 15.15 14.8 13.725ZM15.025 13.175C16.25 13.95 17.275 12.875 18 11.925C18.8 10.875 19.35 9.575 19 9.3C18.475 8.875 16.4 10.375 15.225 12.75C15.15 12.9 15.075 13.05 15.025 13.175ZM24.5078 10.65C25.6328 9.45 27.3328 8.075 28.1578 8.2C28.9828 8.325 29.7578 9.55 29.1328 10.85C28.6078 11.95 27.3828 13.8 26.8078 15.1C26.1578 16.55 26.3078 17.725 27.2078 17.675C28.2328 17.625 29.4578 15.975 30.4078 14.225C30.5328 14 30.7078 14 30.8328 14.2C31.0078 14.475 30.9578 15.05 30.6078 15.775C29.9328 17.175 28.3578 18.45 26.9078 18.45C24.7828 18.45 24.2828 16.9 25.0078 14.725C25.8328 12.275 28.0328 9.625 27.5828 9.425C27.3328 9.325 25.8828 10.025 24.2828 11.775C22.8078 13.375 21.7078 15.775 20.6328 18.125C20.5328 18.35 20.3828 18.45 20.1578 18.225C19.6578 17.725 19.5078 16.9 19.9078 15.65C20.4078 14.075 22.3328 10.6 23.9078 8.275C24.0828 8 24.2828 8.025 24.4328 8.275C24.8078 8.9 24.7828 9.75 24.5078 10.65ZM46.7775 15.8C46.1525 17.3 44.6525 18.45 43.2775 18.375C41.3775 18.275 40.6275 16.575 41.2525 14.55C41.7775 12.875 43.2775 11.025 44.3525 9.825C43.2525 10.525 42.1275 10.775 41.3525 10.775C39.2775 15.125 36.5775 18.275 33.6025 18.325C30.4275 18.375 29.3525 15.275 30.9775 12.075C32.5525 8.975 35.1025 7.575 36.3525 8.3C36.9775 8.675 37.4275 9.025 37.8275 9.575C38.2525 10.175 38.0025 11.65 37.0025 12.925C35.8275 14.45 34.1525 15.075 32.4025 13.675C31.6025 15.95 32.2275 17.575 33.5025 17.625C36.2525 17.75 39.0025 13.8 40.3775 10.625C38.4525 9.825 40.9025 6.5 41.9525 6.45C42.7275 6.425 42.4775 7.95 41.8525 9.575C42.7275 9.45 43.6025 9.05 44.5775 8.4C44.8775 8.2 45.1025 8.075 45.2775 8.325C45.7775 8.875 46.4025 10.075 45.6525 10.9C44.4775 12.2 43.2025 13.9 42.7775 15.25C42.3525 16.625 42.6525 17.625 43.4025 17.65C44.4525 17.7 45.7275 16.05 46.5275 14.2C46.6275 14 46.8025 13.95 46.9025 14.175C47.0275 14.45 47.0775 15.1 46.7775 15.8ZM32.6275 13.125C33.8525 13.875 34.8275 12.85 35.5775 11.9C36.3775 10.875 36.9025 9.575 36.5775 9.3C36.0275 8.825 33.9775 10.4 32.8275 12.7C32.7525 12.825 32.7025 13 32.6275 13.125ZM52.0158 6.525C52.3408 7.175 52.1658 7.85 51.8408 8.2C51.5158 8.55 50.8158 8.475 50.4408 7.825C50.0408 7.15 50.1658 6.4 50.5658 5.975C50.9658 5.55 51.6908 5.85 52.0158 6.525ZM47.9408 18.375C46.0408 18.375 45.5658 16.775 46.2658 14.725C46.8908 12.9 48.5408 9.95 49.4658 8.65C49.6908 8.35 49.8658 8.275 50.0658 8.5C50.4408 8.9 50.6408 9.975 50.0408 11.225C49.5158 12.325 48.4658 14.025 47.9408 15.275C47.3408 16.725 47.3908 17.7 48.1908 17.65C49.3158 17.6 50.6908 15.95 51.4408 14.225C51.5658 14 51.7408 14.025 51.8408 14.225C52.0408 14.625 51.9658 15.15 51.6658 15.775C50.9158 17.325 49.3408 18.375 47.9408 18.375ZM57.4201 8.35C58.0951 8.75 58.4951 9.15 58.7951 9.725C59.3201 10.775 58.3201 12.1 57.8201 13.45C57.7201 13.75 57.6201 13.825 57.2951 13.65C56.6951 13.35 56.3451 12.6 56.6951 11.475C56.9701 10.575 57.7201 9.5 57.3701 9.225C56.9451 8.875 55.0701 10.475 53.9451 12.75C52.5701 15.575 53.0951 17.65 54.5701 17.675C56.6701 17.7 58.4701 15.7 59.4951 14.125C59.6201 13.925 59.8451 13.9 59.9451 14.15C60.0201 14.35 59.9201 14.975 59.4951 15.65C58.5451 17.125 56.5701 18.35 54.6701 18.375C51.4951 18.425 50.4201 15.325 52.0451 12.1C53.6451 8.95 56.1701 7.6 57.4201 8.35Z" fill="white"/>
<path d="M131.7 12.85C131.825 12.575 132.1 12.575 132.225 12.9C132.85 14.575 131.25 16.45 130.2 17.2C128.425 18.475 126.325 18.45 124.975 17.725C123.85 17.125 122.875 15.575 122.825 13.525C122.725 8.225 127.175 3.7 129.975 2.625C131.325 2.1 132.55 2 133.35 2.7C133.9 3.175 134.475 3.9 134.675 4.525C134.9 5.25 134.825 5.95 134.45 6.725C134.075 7.5 133.725 8.475 133.45 9.2C133.375 9.4 133.2 9.55 132.9 9.35C132.325 8.975 131.925 8.2 132.3 6.95C132.7 5.625 133.6 4.2 133.025 3.6C132.325 2.85 128.525 4.875 126.275 8.6C124.075 12.25 124.325 15.95 125.55 16.95C127.15 18.25 129.8 16.575 131.7 12.85ZM157.398 14.225C157.523 14.4 157.523 15.2 157.223 15.8C156.523 17.175 154.923 18.475 153.498 18.45C151.348 18.425 150.598 16.725 151.473 14.7C152.373 12.6 154.598 9.85 154.223 9.7C154.023 9.625 153.148 9.95 151.548 11.55C149.498 13.6 148.273 15.975 147.223 18.3C147.098 18.6 146.873 18.675 146.648 18.45C146.248 18.05 145.948 17.1 146.623 15.325C147.423 13.25 150.098 9.825 149.623 9.625C149.373 9.525 148.123 10.2 146.523 11.95C145.073 13.525 143.873 15.825 142.873 18.175C142.773 18.375 142.648 18.45 142.398 18.25C141.873 17.825 141.748 16.975 142.148 15.725C142.398 14.9 143.023 13.625 143.748 12.225C143.048 12.7 142.298 12.925 141.423 12.85C140.923 15 139.348 17.6 137.498 18.2C136.598 18.5 135.323 18.475 134.323 17.125C133.248 15.675 133.623 13.475 134.748 11.5C135.698 9.825 137.223 8.35 138.723 8.25C139.498 8.2 139.873 8.425 140.398 9.1C140.998 9.875 141.748 10 141.598 11.85C141.598 11.975 141.598 12.125 141.548 12.25C143.148 12.225 144.773 10.375 146.048 8.35C146.198 8.1 146.448 8.1 146.598 8.35C146.998 9 146.923 9.975 146.548 10.95C147.673 9.7 149.498 8.225 150.398 8.25C151.248 8.275 151.673 9.6 151.373 10.7C152.548 9.575 154.223 8.4 155.023 8.425C155.923 8.45 156.123 9.925 155.623 11.125C155.148 12.25 153.948 13.9 153.348 15.125C152.648 16.55 152.973 17.725 153.898 17.675C154.898 17.625 156.023 16 156.973 14.225C157.098 14 157.273 14.05 157.398 14.225ZM139.998 11.85C140.148 11.125 140.223 10.55 140.148 10.1C140.023 9.3 139.498 9.425 139.398 10.175C139.323 10.7 139.498 11.425 139.998 11.85ZM139.798 12.475C138.923 12 138.223 11.075 138.173 10.1C137.498 10.675 136.798 11.525 136.248 12.475C135.148 14.35 134.823 16.625 135.473 17.2C136.148 17.8 137.673 16.875 138.898 14.625C139.323 13.85 139.623 13.125 139.798 12.475ZM161.844 17.9C164.294 17.75 165.794 15.95 166.594 14.25C166.744 13.9 167.019 14 167.069 14.25C167.119 14.475 167.169 15.125 166.744 15.9C165.794 17.625 164.094 18.45 162.294 18.575C160.694 18.675 159.644 18.45 158.769 17.65C158.244 17.175 157.994 16.6 157.919 15.975C156.744 18.125 155.469 20.675 154.269 23.45C154.169 23.675 153.994 23.725 153.844 23.5C153.469 22.975 153.344 22.275 153.819 20.75C154.569 18.325 158.769 10.4 160.344 8.3C160.594 7.975 160.819 8.025 160.944 8.325C161.069 8.65 161.119 9.025 161.094 9.45C162.194 8.5 163.669 7.8 164.744 8.925C165.944 10.2 165.394 12.425 164.469 14.475C163.719 16.125 162.794 17.325 161.844 17.9ZM159.319 13.475C158.694 15.05 158.569 16.55 159.269 17.125C160.069 17.775 161.694 15.95 162.869 13.55C163.844 11.55 164.119 9.475 163.494 9.175C162.894 8.875 161.344 10.125 160.169 12.05C159.894 12.5 159.619 12.95 159.319 13.475ZM174.289 9.875C174.614 9.275 174.914 8.75 175.189 8.35C175.414 8.025 175.614 7.975 175.789 8.2C176.164 8.65 176.364 9.725 175.764 10.975C175.214 12.1 173.964 13.975 173.364 15.3C172.739 16.7 172.714 17.775 173.564 17.725C174.589 17.675 175.964 15.975 176.839 14.25C176.964 14.025 177.139 14 177.239 14.225C177.339 14.45 177.339 15.075 177.014 15.775C176.364 17.15 174.789 18.525 173.414 18.45C172.064 18.375 171.364 17.575 171.364 16.4C170.564 17.425 169.439 18.35 168.239 18.35C165.914 18.35 165.439 15.175 167.514 12.15C169.539 9.2 171.514 8.075 172.764 8.075C173.839 8.075 174.339 8.9 174.289 9.875ZM172.114 13.75C173.689 11 173.914 9.45 173.189 9.375C172.389 9.3 170.564 10.925 169.189 13.15C167.864 15.3 167.539 17.5 168.514 17.525C169.539 17.55 170.839 15.95 172.114 13.75ZM180.37 10.65C181.495 9.45 183.195 8.075 184.02 8.2C184.845 8.325 185.62 9.55 184.995 10.85C184.47 11.95 183.245 13.8 182.67 15.1C182.02 16.55 182.17 17.725 183.07 17.675C184.095 17.625 185.32 15.975 186.27 14.225C186.395 14 186.57 14 186.695 14.2C186.87 14.475 186.82 15.05 186.47 15.775C185.795 17.175 184.22 18.45 182.77 18.45C180.645 18.45 180.145 16.9 180.87 14.725C181.695 12.275 183.895 9.625 183.445 9.425C183.195 9.325 181.745 10.025 180.145 11.775C178.67 13.375 177.57 15.775 176.495 18.125C176.395 18.35 176.245 18.45 176.02 18.225C175.52 17.725 175.37 16.9 175.77 15.65C176.27 14.075 178.195 10.6 179.77 8.275C179.945 8 180.145 8.025 180.295 8.275C180.67 8.9 180.645 9.75 180.37 10.65ZM195.493 15.575C194.518 17.125 192.768 18.075 190.693 18.925C189.293 22.275 187.518 26.3 185.443 27.1C184.968 27.275 184.493 27.275 184.018 26.575C183.518 25.825 183.018 24.95 183.518 23.475C184.268 21.225 186.393 19.725 188.868 18.75C189.118 18.175 189.368 17.55 189.643 16.95C188.868 17.75 187.918 18.4 186.918 18.325C185.118 18.175 185.068 16.35 185.643 14.7C186.193 13.1 187.418 10.625 189.043 8.375C189.243 8.1 189.493 8.125 189.668 8.375C190.268 9.175 190.118 10.225 189.193 11.7C188.293 13.15 187.743 14.175 187.268 15.35C186.768 16.575 186.818 17.45 187.393 17.5C188.368 17.575 189.618 15.975 190.893 13.8C191.968 11.95 193.043 9.7 193.918 8.425C194.143 8.1 194.318 8.05 194.543 8.25C194.893 8.7 195.093 9.775 194.443 11.05C193.693 12.5 192.168 15.5 191.118 17.925C193.068 16.875 194.543 15.45 195.543 14.075C195.668 13.9 195.893 13.875 195.943 14.125C195.993 14.35 195.918 14.925 195.493 15.575ZM188.443 19.8C185.193 21.675 184.068 25.1 184.518 25.725C184.843 26.2 186.893 23.475 188.443 19.8Z" fill="white"/>
<path d="M118.413 6.18255C117.873 5.88419 117.314 5.63514 116.741 5.43768C115.885 5.10029 115.002 4.86241 114.105 4.72756C113.002 4.59866 111.893 4.57077 110.786 4.64416C109.541 4.78068 108.309 5.0431 107.104 5.42841C105.814 5.8558 104.564 6.43131 103.372 7.14637C102.146 7.88972 100.98 8.7614 99.891 9.75053C98.8208 10.7697 97.8202 11.8832 96.898 13.081C96.0143 14.2759 95.2188 15.5546 94.52 16.9038C93.8467 18.2126 93.2841 19.5937 92.84 21.0279C92.0011 23.657 91.559 26.4337 91.533 29.2365C91.5254 30.4419 91.5963 31.6462 91.745 32.8393C91.8672 33.8289 92.049 34.8075 92.289 35.7678C92.3606 36.1327 92.4548 36.4913 92.571 36.8405C92.75 36.413 92.945 35.945 93.165 35.4399C94.4975 32.3898 96.0185 29.4552 97.716 26.659C98.6273 25.1697 99.6077 23.7389 100.653 22.3728C101.181 21.7473 101.691 21.1402 102.171 20.5622L103.614 19.0562C104.1 18.645 104.547 18.2627 104.937 17.9163C105.275 17.6274 105.629 17.3658 105.998 17.1332C106.598 16.722 106.947 16.4903 106.947 16.4903C106.947 16.4903 106.623 16.7602 106.047 17.2166C105.696 17.4825 105.362 17.7763 105.047 18.0959C104.684 18.4596 104.276 18.8697 103.822 19.3261C103.417 19.8208 102.97 20.3687 102.501 20.9317C102.071 21.5387 101.616 22.1736 101.145 22.8362C100.215 24.2654 99.3508 25.7511 98.557 27.2869C97.0952 30.1672 95.8113 33.1638 94.715 36.2543C94.464 36.9644 94.252 37.5993 94.065 38.1588C94.455 38.0371 94.941 37.9074 95.465 37.6954C96.13 37.4255 96.989 37.1533 97.826 36.7617C98.686 36.3794 99.593 35.9427 100.52 35.4283C101.453 34.9337 102.36 34.3464 103.295 33.7301C104.23 33.1138 105.108 32.4083 105.984 31.6912C106.841 30.9586 107.664 30.174 108.449 29.3408C109.22 28.5176 109.951 27.6467 110.641 26.732C111.975 24.9731 113.137 23.0484 114.105 20.9931C114.583 19.995 115.017 18.9697 115.405 17.921C115.81 16.9317 116.159 15.823 116.5 14.8152C116.841 13.8074 117.165 12.8076 117.449 11.8288C117.749 10.8105 118.016 9.93356 118.249 9.20491C118.5 8.48552 118.662 7.74065 118.808 7.29117C118.947 6.78726 119.008 6.52661 119.008 6.52661C119.008 6.52661 118.808 6.38528 118.416 6.17908L118.413 6.18255Z" fill="#DFEFCE"/>
<path d="M88.247 28.6017C86.9572 27.5504 85.7148 26.4229 84.525 25.2237L82.959 23.4791C82.488 22.8918 82.059 22.3299 81.644 21.8168C81.287 21.2572 80.954 20.7441 80.662 20.2969C80.408 19.9102 80.1803 19.5012 79.981 19.0736C79.624 18.3785 79.42 17.9812 79.42 17.9812C79.42 17.9812 79.648 18.3635 80.053 19.0157C80.2777 19.4212 80.5298 19.8055 80.807 20.1648C81.125 20.5853 81.49 21.0603 81.879 21.5746C82.317 22.038 82.779 22.5547 83.279 23.0968C83.807 23.5915 84.365 24.1128 84.934 24.6549C86.1766 25.7239 87.4671 26.7162 88.8 27.6275C89.369 28.019 89.936 28.3654 90.511 28.7094C90.7015 25.2524 91.291 21.8406 92.264 18.565C91.7365 17.7636 91.1737 16.9942 90.578 16.2598C89.8651 15.3713 89.1092 14.5305 88.314 13.7413C86.7868 12.197 85.1123 10.86 83.323 9.75632C82.46 9.20306 81.5717 8.70458 80.662 8.2631C79.794 7.79973 78.836 7.39312 77.952 7.00157C77.084 6.61002 76.209 6.237 75.352 5.91959C74.478 5.55584 73.713 5.2477 73.082 4.99284C72.46 4.6986 71.802 4.51325 71.414 4.34296C70.984 4.19237 70.758 4.11128 70.758 4.11128C70.645 4.33202 70.5418 4.55938 70.449 4.79244C70.1947 5.41522 69.9782 6.05777 69.801 6.71543C69.5074 7.70009 69.3004 8.71655 69.183 9.74937C69.0698 11.017 69.0454 12.2931 69.11 13.5652C69.2246 14.9994 69.4529 16.4183 69.792 17.804C70.1655 19.2907 70.6649 20.7311 71.283 22.1041C71.9329 23.5117 72.6906 24.8489 73.547 26.0995C74.4346 27.3338 75.4042 28.4857 76.447 29.5447C77.4884 30.5627 78.602 31.4773 79.776 32.2786C80.9125 33.0575 82.111 33.7081 83.355 34.2213C85.6428 35.182 88.0537 35.6911 90.487 35.7272C90.587 35.7272 90.666 35.718 90.755 35.7087C90.5221 33.907 90.4241 32.0853 90.462 30.2641C89.723 29.7312 88.985 29.2076 88.246 28.611L88.247 28.6017Z" fill="#DFEFCE"/>
</svg>
